<svg width="15" height="15" viewBox="0 0 15 15" fill="none" xmlns="http://www.w3.org/2000/svg">
<path d="M7.92967 0.47168C4.09769 0.47168 0.987671 3.5817 0.987671 7.41368C0.987671 11.2457 4.09769 14.3557 7.92967 14.3557C11.7617 14.3557 14.8717 11.2457 14.8717 7.41368C14.8717 3.5817 11.7617 0.47168 7.92967 0.47168ZM8.97097 3.24848C9.35278 3.24848 9.66517 3.56087 9.66517 3.94268C9.66517 4.32449 9.35278 4.63688 8.97097 4.63688C8.58916 4.63688 8.27677 4.32449 8.27677 3.94268C8.27677 3.56087 8.58916 3.24848 8.97097 3.24848ZM10.7065 7.41368C10.2205 7.41368 9.31113 7.03881 8.68635 6.19189L8.40173 7.82326L9.31807 8.82291V11.5789H8.62387V9.09364L7.85331 8.25366L7.49232 10.0863L4.87519 9.55182L5.01403 8.8715L6.94391 9.26719L7.61034 5.87256L6.54127 6.26825V7.41368H5.84707V5.78231L8.12405 4.94233C8.4642 4.81737 8.83907 4.98398 8.99874 5.31025C9.57492 6.49039 10.4218 6.71948 10.7065 6.71948V7.41368Z" fill="#FEA571"/>
</svg>
