<svg width="16" height="16" viewBox="0 0 20 20" fill="none" xmlns="http://www.w3.org/2000/svg">
<path d="M10 0C4.48 0 0 4.48 0 10C0 15.52 4.48 20 10 20C15.52 20 20 15.52 20 10C20 4.48 15.52 0 10 0ZM11.5 4C12.05 4 12.5 4.45 12.5 5C12.5 5.55 12.05 6 11.5 6C10.95 6 10.5 5.55 10.5 5C10.5 4.45 10.95 4 11.5 4ZM14 10C13.3 10 11.99 9.46 11.09 8.24L10.68 10.59L12 12.03V16H11V12.42L9.89 11.21L9.37 13.85L5.6 13.08L5.8 12.1L8.58 12.67L9.54 7.78L8 8.35V10H7V7.65L10.28 6.44C10.77 6.26 11.31 6.5 11.54 6.97C12.37 8.67 13.59 9 14 9V10Z" fill="#FEA571"/>
</svg>
