<svg width="75" height="75" viewBox="0 0 75 75" fill="none" xmlns="http://www.w3.org/2000/svg">
<path fill-rule="evenodd" clip-rule="evenodd" d="M37.5 34.375C44.4036 34.375 50 28.7786 50 21.875C50 14.9714 44.4036 9.375 37.5 9.375C30.5964 9.375 25 14.9714 25 21.875C25 28.7786 30.5964 34.375 37.5 34.375ZM37.5 31.25C42.6777 31.25 46.875 27.0527 46.875 21.875C46.875 16.6973 42.6777 12.5 37.5 12.5C32.3223 12.5 28.125 16.6973 28.125 21.875C28.125 27.0527 32.3223 31.25 37.5 31.25Z" fill="#4E4E4E"/>
<path fill-rule="evenodd" clip-rule="evenodd" d="M64.0625 51.5625C64.0625 43.7959 57.7666 37.5 50 37.5H25C17.2334 37.5 10.9375 43.7959 10.9375 51.5625C10.9375 59.3291 17.2334 65.625 25 65.625H37.5C40.9517 65.625 43.75 62.8267 43.75 59.375C43.75 56.3975 41.668 53.9063 38.8803 53.278L44.0205 40.625H50C56.0406 40.625 60.9375 45.5219 60.9375 51.5625C60.9375 57.6031 56.0406 62.5 50 62.5V56.25C52.5889 56.25 54.6875 54.1514 54.6875 51.5625C54.6875 48.9736 52.5889 46.875 50 46.875H46.875V65.625H50C57.7666 65.625 64.0625 59.3291 64.0625 51.5625ZM25 40.625C18.9594 40.625 14.0625 45.5219 14.0625 51.5625C14.0625 54.3922 15.1371 56.9709 16.9005 58.913L21.1177 54.1897C20.61 53.4409 20.3125 52.5367 20.3125 51.5625C20.3125 48.9736 22.4111 46.875 25 46.875H27.6486L33.2289 40.625H25ZM37.6709 56.2545L35.1338 62.5H37.5C39.2259 62.5 40.625 61.1009 40.625 59.375C40.625 57.7064 39.3173 56.3434 37.6709 56.2545ZM31.7608 62.5L40.6475 40.625H37.4183L19.3106 60.9056C20.9683 61.9172 22.9161 62.5 25 62.5H31.7608ZM51.5625 51.5625C51.5625 52.4255 50.863 53.125 50 53.125V50C50.863 50 51.5625 50.6995 51.5625 51.5625ZM24.8523 50.0069C24.0586 50.0812 23.4375 50.7494 23.4375 51.5625L23.4378 51.5911L24.8523 50.0069Z" fill="#4E4E4E"/>
</svg>
